<svg width="82" height="82" viewBox="0 0 82 82" fill="none" xmlns="http://www.w3.org/2000/svg">
<path d="M62.9995 64.7436C62.2387 68.7373 58.7471 71.6267 54.6817 71.6267H27.2652C23.1997 71.6267 19.708 68.7373 18.9473 64.7436L12.7637 32.2796L40.744 11.5883L69.1844 32.2724L62.9995 64.7436Z" fill="#FFC800"/>
<path opacity="0.5" fill-rule="evenodd" clip-rule="evenodd" d="M33.7119 59.2222C33.7119 57.7126 34.9355 56.4888 36.4451 56.4888H47.3785C48.8881 56.4888 50.1119 57.7126 50.1119 59.2222C50.1119 60.7318 48.8881 61.9556 47.3785 61.9556H36.4451C34.9355 61.9556 33.7119 60.7318 33.7119 59.2222Z" fill="#945151"/>
<path d="M49.9134 41.7682C49.9134 46.6908 45.9229 50.6811 41.0003 50.6811C36.0777 50.6811 32.0874 46.6908 32.0874 41.7682C32.0874 36.8457 36.0777 32.8551 41.0003 32.8551C45.9229 32.8551 49.9134 36.8457 49.9134 41.7682Z" fill="#945151"/>
<path d="M41.432 7.28934C42.6482 7.28342 43.8787 7.65134 44.9365 8.4193L76.7356 31.3442C79.3816 33.2669 79.9681 36.9705 78.0458 39.6165C76.1236 42.2618 72.4216 42.8488 69.7755 40.928L41.4107 20.4791L13.0487 40.9262L13.0464 40.928C10.4005 42.8483 6.69846 42.2615 4.77648 39.616C2.85399 36.97 3.44057 33.2664 6.08666 31.344L6.09073 31.3409L37.884 8.42027C38.9541 7.64345 40.2025 7.27466 41.432 7.28934Z" fill="#FF4B4B"/>
</svg>
