<svg width="82" height="66" viewBox="0 0 82 66" fill="none" xmlns="http://www.w3.org/2000/svg">
<path d="M63.437 4H18.563C13.6282 4 11.8668 4.58451 10.0703 5.54532C8.11953 6.58859 6.58859 8.11953 5.54532 10.0703C4.58451 11.8668 4 13.6282 4 18.563V47.437C4 52.3718 4.58451 54.1332 5.54532 55.9297C6.58859 57.8805 8.11953 59.4114 10.0703 60.4547C11.8668 61.4155 13.6282 62 18.563 62H63.437C68.3718 62 70.1332 61.4155 71.9297 60.4547C73.8805 59.4114 75.4114 57.8805 76.4547 55.9297C77.4155 54.1332 78 52.3718 78 47.437V18.563C78 13.6282 77.4155 11.8668 76.4547 10.0703C75.4114 8.11953 73.8805 6.58859 71.9297 5.54532C70.1332 4.58451 68.3718 4 63.437 4Z" fill="#FF4B4B" stroke="white" stroke-width="4"/>
<path d="M76 42V47.437C76 51.8054 75.5452 53.3895 74.691 54.9865C73.8369 56.5836 72.5836 57.8369 70.9865 58.6911C69.3895 59.5452 67.8054 60 63.437 60H18.563C14.1946 60 12.6105 59.5452 11.0135 58.6911C9.41642 57.8369 8.16306 56.5836 7.30895 54.9865C6.45485 53.3895 6 51.8054 6 47.437V42H76Z" fill="#7AC70C"/>
<path d="M18.563 6H63.437C67.8054 6 69.3895 6.45485 70.9865 7.30895C72.5836 8.16306 73.8369 9.41642 74.691 11.0135C75.5452 12.6105 76 14.1946 76 18.563V24H6V18.563C6 14.1946 6.45485 12.6105 7.30895 11.0135C8.16306 9.41642 9.41642 8.16306 11.0135 7.30895C12.6105 6.45485 14.1946 6 18.563 6Z" fill="#1CB0F6"/>
<path d="M48.3119 21.3341C47.4374 21.1114 46.6667 21 46 21C39.3726 21 34 26.3726 34 33C34 39.6274 39.3726 45 46 45C46.6667 45 47.4373 44.8886 48.3118 44.6659C48.8471 44.5296 49.3914 44.8529 49.5278 45.3881C49.6302 45.7903 49.4736 46.214 49.1341 46.4528C46.7209 48.1509 43.6762 49 40 49C31.1634 49 24 41.8366 24 33C24 24.1634 31.1634 17 40 17C43.6762 17 46.7209 17.8491 49.1342 19.5472C49.5859 19.8651 49.6944 20.4889 49.3766 20.9405C49.1377 21.2799 48.7141 21.4366 48.3119 21.3341Z" fill="white"/>
<path d="M53.7633 37.897L52.079 39.4644C51.5157 39.9887 50.634 39.957 50.1097 39.3937C49.9002 39.1686 49.771 38.8805 49.7424 38.5743L49.5234 36.2373C49.4929 35.9117 49.3051 35.6215 49.0205 35.4604L46.9949 34.3133C46.3197 33.931 46.0823 33.0737 46.4647 32.3985C46.6156 32.132 46.8494 31.9222 47.1305 31.8009L49.2415 30.89C49.5444 30.7592 49.7634 30.4875 49.8267 30.1637L50.2718 27.888C50.4194 27.1334 51.1508 26.6413 51.9053 26.7889C52.2091 26.8483 52.4844 27.0073 52.6878 27.2406L54.2111 28.989C54.4278 29.2377 54.7533 29.3635 55.081 29.3253L57.3646 29.0586C58.1353 28.9687 58.833 29.5205 58.923 30.2911C58.9585 30.5953 58.8936 30.9027 58.7383 31.1666L57.5576 33.1729C57.3917 33.4547 57.3741 33.7999 57.5105 34.0971L58.4895 36.2306C58.8104 36.93 58.5036 37.7572 57.8041 38.0782C57.5246 38.2064 57.2106 38.2386 56.9109 38.1697L54.6685 37.6544C54.3452 37.5801 54.0061 37.671 53.7633 37.897Z" fill="white"/>
</svg>
