<svg width="82" height="66" viewBox="0 0 82 66" fill="none" xmlns="http://www.w3.org/2000/svg">
<path d="M63.437 4H18.563C13.6282 4 11.8668 4.58451 10.0703 5.54532C8.11953 6.58859 6.58859 8.11953 5.54532 10.0703C4.58451 11.8668 4 13.6282 4 18.563V47.437C4 52.3718 4.58451 54.1332 5.54532 55.9297C6.58859 57.8805 8.11953 59.4114 10.0703 60.4547C11.8668 61.4155 13.6282 62 18.563 62H63.437C68.3718 62 70.1332 61.4155 71.9297 60.4547C73.8805 59.4114 75.4114 57.8805 76.4547 55.9297C77.4155 54.1332 78 52.3718 78 47.437V18.563C78 13.6282 77.4155 11.8668 76.4547 10.0703C75.4114 8.11953 73.8805 6.58859 71.9297 5.54532C70.1332 4.58451 68.3718 4 63.437 4Z" fill="#EEEEEE" stroke="white" stroke-width="4"/>
<path d="M29.625 6V60H18.563C14.1946 60 12.6105 59.5452 11.0135 58.6911C9.41642 57.8369 8.16306 56.5836 7.30895 54.9865C6.45485 53.3895 6 51.8054 6 47.437V18.563C6 14.1946 6.45485 12.6105 7.30895 11.0135C8.16306 9.41642 9.41642 8.16306 11.0135 7.30895C12.6105 6.45485 14.1946 6 18.563 6H29.625Z" fill="#1CB0F6"/>
<path d="M52.375 6H63.437C67.8054 6 69.3895 6.45485 70.9865 7.30895C72.5836 8.16306 73.8369 9.41642 74.691 11.0135C75.5452 12.6105 76 14.1946 76 18.563V47.437C76 51.8054 75.5452 53.3895 74.691 54.9865C73.8369 56.5836 72.5836 57.8369 70.9865 58.6911C69.3895 59.5452 67.8054 60 63.437 60H52.375V6Z" fill="#FF4B4B"/>
</svg>
