<svg width="82" height="66" viewBox="0 0 82 66" fill="none" xmlns="http://www.w3.org/2000/svg">
<path d="M63.437 4H18.563C13.6282 4 11.8668 4.58451 10.0703 5.54532C8.11953 6.58859 6.58859 8.11953 5.54532 10.0703C4.58451 11.8668 4 13.6282 4 18.563V47.437C4 52.3718 4.58451 54.1332 5.54532 55.9297C6.58859 57.8805 8.11953 59.4114 10.0703 60.4547C11.8668 61.4155 13.6282 62 18.563 62H63.437C68.3718 62 70.1332 61.4155 71.9297 60.4547C73.8805 59.4114 75.4114 57.8805 76.4547 55.9297C77.4155 54.1332 78 52.3718 78 47.437V18.563C78 13.6282 77.4155 11.8668 76.4547 10.0703C75.4114 8.11953 73.8805 6.58859 71.9297 5.54532C70.1332 4.58451 68.3718 4 63.437 4Z" fill="white" stroke="white" stroke-width="4"/>
<path d="M76 42V47.437C76 51.8054 75.5452 53.3895 74.691 54.9865C73.8369 56.5836 72.5836 57.8369 70.9865 58.6911C69.3895 59.5452 67.8054 60 63.437 60H18.563C14.1946 60 12.6105 59.5452 11.0135 58.6911C9.41642 57.8369 8.16306 56.5836 7.30895 54.9865C6.45485 53.3895 6 51.8054 6 47.437V42H76Z" fill="#FF4B4B"/>
<path d="M18.563 6H63.437C67.8054 6 69.3895 6.45485 70.9865 7.30895C72.5836 8.16306 73.8369 9.41642 74.691 11.0135C75.5452 12.6105 76 14.1946 76 18.563V24H6V18.563C6 14.1946 6.45485 12.6105 7.30895 11.0135C8.16306 9.41642 9.41642 8.16306 11.0135 7.30895C12.6105 6.45485 14.1946 6 18.563 6Z" fill="#7AC70C"/>
<path d="M39.1312 25.6944C39.3403 24.7685 40.6597 24.7685 40.8689 25.6944L41.3522 27.8343C41.4877 28.4344 42.1764 28.7196 42.6967 28.3911L44.5515 27.2198C45.3541 26.713 46.287 27.6459 45.7802 28.4486L44.6089 30.3034C44.2804 30.8236 44.5656 31.5123 45.1658 31.6478L47.3055 32.1312C48.2315 32.3403 48.2315 33.6597 47.3055 33.8688L45.1658 34.3522C44.5656 34.4878 44.2804 35.1764 44.6089 35.6966L45.7802 37.5514C46.287 38.3541 45.3541 39.287 44.5515 38.7802L42.6967 37.6089C42.1764 37.2804 41.4877 37.5657 41.3522 38.1659L40.8689 40.3056C40.6597 41.2315 39.3403 41.2315 39.1312 40.3056L38.6478 38.1659C38.5122 37.5657 37.8236 37.2804 37.3034 37.6089L35.4486 38.7802C34.6459 39.287 33.713 38.3541 34.2198 37.5514L35.3911 35.6966C35.7196 35.1764 35.4343 34.4878 34.8342 34.3522L32.6945 33.8688C31.7685 33.6597 31.7685 32.3403 32.6945 32.1312L34.8342 31.6478C35.4343 31.5123 35.7196 30.8236 35.3911 30.3034L34.2198 28.4486C33.713 27.6459 34.6459 26.713 35.4486 27.2198L37.3034 28.3911C37.8236 28.7196 38.5122 28.4344 38.6478 27.8343L39.1312 25.6944Z" fill="#FFC800"/>
</svg>
