<svg width="82" height="66" viewBox="0 0 82 66" fill="none" xmlns="http://www.w3.org/2000/svg">
<path fill-rule="evenodd" clip-rule="evenodd" d="M63.437 4H18.563C13.6282 4 11.8668 4.58451 10.0703 5.54532C8.11953 6.58859 6.58859 8.11953 5.54532 10.0703C4.58451 11.8668 4 13.6282 4 18.563V47.437C4 52.3718 4.58451 54.1332 5.54532 55.9297C6.58859 57.8805 8.11953 59.4114 10.0703 60.4547C11.8668 61.4155 13.6282 62 18.563 62H63.437C68.3718 62 70.1332 61.4155 71.9297 60.4547C73.8805 59.4114 75.4114 57.8805 76.4547 55.9297C77.4155 54.1332 78 52.3718 78 47.437V18.563C78 13.6282 77.4155 11.8668 76.4547 10.0703C75.4114 8.11953 73.8805 6.58859 71.9297 5.54532C70.1332 4.58451 68.3718 4 63.437 4Z" fill="#FF4B4B" stroke="white" stroke-width="4"/>
<path fill-rule="evenodd" clip-rule="evenodd" d="M6 21.4286H76V44.5714H6V21.4286Z" fill="#FFC800"/>
<path fill-rule="evenodd" clip-rule="evenodd" d="M33.2223 27.2143C34.2962 27.2143 35.1667 28.0848 35.1667 29.1587V36.8413C35.1667 37.9152 34.2962 38.7857 33.2223 38.7857C32.1484 38.7857 31.2778 37.9152 31.2778 36.8413V29.1587C31.2778 28.0848 32.1484 27.2143 33.2223 27.2143Z" fill="white"/>
<path fill-rule="evenodd" clip-rule="evenodd" d="M13.7779 27.2143C14.8518 27.2143 15.7224 28.0848 15.7224 29.1587V36.8413C15.7224 37.9152 14.8518 38.7857 13.7779 38.7857C12.7041 38.7857 11.8335 37.9152 11.8335 36.8413V29.1587C11.8335 28.0848 12.7041 27.2143 13.7779 27.2143Z" fill="white"/>
<path fill-rule="evenodd" clip-rule="evenodd" d="M19.4165 25.2857H27.5832C28.5497 25.2857 29.3332 26.0692 29.3332 27.0357V34.881C29.3332 38.1026 26.7215 40.7143 23.4998 40.7143C20.2782 40.7143 17.6665 38.1026 17.6665 34.881V27.0357C17.6665 26.0692 18.45 25.2857 19.4165 25.2857Z" fill="#FF4B4B"/>
</svg>
